<svg width="150" height="135" viewBox="0 0 150 135" fill="none" xmlns="http://www.w3.org/2000/svg">
<g id="Layer_1" clip-path="url(#clip0_36_3418)">
<path id="Vector" d="M83.599 36.6554C81.686 38.1042 81.1202 40.3304 81.0814 42.6732C80.9972 47.7819 81.0533 52.8928 81.0533 58.0037C81.0533 59.295 81.0533 60.5862 81.0533 62.0242H82.243C86.5615 62.0242 90.88 62.0221 95.1985 62.0242C101.788 62.0286 107.076 65.8785 109.156 72.1748C109.212 72.3432 109.305 72.4987 109.503 72.9241C109.782 72.5354 109.959 72.2266 110.192 71.9697C114.962 66.6774 119.755 61.4045 124.51 56.1015C131.035 48.8227 141.536 49.0515 147.301 56.624C151.021 61.5125 150.898 67.7203 146.921 72.6585C141.773 79.0455 136.647 85.452 131.402 91.7591C126.244 97.9626 120.798 103.907 114.504 109.005C111.192 111.687 107.718 114.155 103.559 115.329C101.855 115.811 100.024 116.046 98.2495 116.051C81.9839 116.104 65.7162 116.081 49.4486 116.081C49.0189 116.081 48.5913 116.081 47.9285 116.081C48.2286 116.636 48.4532 117.052 48.6777 117.469C49.9365 119.814 49.3104 122.284 47.0194 123.621C41.3385 126.937 35.6424 130.23 29.9269 133.488C27.6165 134.808 25.1248 134.13 23.786 131.819C16.0581 118.473 8.34749 105.116 0.654134 91.7483C-0.660841 89.4638 0.0560254 86.9332 2.33618 85.6074C7.99338 82.3189 13.6571 79.0455 19.338 75.798C21.6873 74.455 24.1682 75.1394 25.5717 77.4563C26.1849 78.469 26.7658 79.5054 27.433 80.6563C27.718 80.3518 27.9512 80.1014 28.1866 79.8531C31.3304 76.5386 34.2886 73.0169 37.6634 69.9594C43.4329 64.7319 50.2626 61.9184 58.1805 62.0264C63.1468 62.0933 68.113 62.0307 73.0792 62.0264C73.4679 62.0264 73.8587 62.0264 74.3618 62.0264C74.3618 59.9773 74.3769 58.0102 74.3575 56.0453C74.3424 54.6461 74.4568 53.2146 74.2064 51.8542C73.6558 48.8831 71.8852 46.5598 69.0717 44.7417C68.5189 45.2535 67.977 45.817 67.3724 46.3028C62.8207 49.9779 57.5176 51.3295 51.7805 51.2885C44.4694 51.2389 38.756 47.9266 34.4203 42.291C32.1984 39.4062 30.4991 36.1156 28.599 32.989C28.4673 32.7731 28.5018 32.2484 28.6702 32.0886C32.8548 28.0854 37.3504 24.555 42.9212 22.6031C54.2162 18.6452 65.7789 25.6778 69.618 33.1574C70.3413 34.5695 70.6393 36.1976 71.151 37.7199C71.246 38.0006 71.3713 38.3439 71.5937 38.495C72.5373 39.145 73.5219 39.7323 74.5756 40.3973C74.7181 39.8035 74.852 39.2249 74.9945 38.6483C75.7545 35.5758 77.2746 33.0063 79.8852 31.1299C80.1443 30.9442 80.412 30.4821 80.3623 30.2036C79.4468 24.9502 80.7359 20.1005 83.2384 15.564C87.2762 8.23982 93.0695 2.93889 101.354 0.822842C107.059 -0.634642 112.744 -0.0192598 118.287 1.63256C121.787 2.67547 125.16 4.14591 128.572 5.47168C128.863 5.58396 129.219 6.0849 129.193 6.37424C128.533 13.8063 127.125 21.0419 123.281 27.5866C119.181 34.5695 112.921 38.5015 105.153 40.1922C99.6033 41.3992 94.0649 41.4251 88.697 39.3307C86.9782 38.6591 85.4042 37.6184 83.599 36.6575V36.6554ZM30.972 86.6957C31.0735 86.9224 31.121 87.0606 31.1922 87.1837C35.3444 94.3761 39.5096 101.56 43.6337 108.765C44.0181 109.437 44.5017 109.482 45.1409 109.482C62.2334 109.473 79.3281 109.396 96.4206 109.534C100.527 109.566 104.015 108.379 107.297 106.107C111.401 103.264 115.13 99.9707 118.425 96.2525C123.91 90.0619 129.23 83.7246 134.566 77.4023C137.07 74.4334 139.489 71.3889 141.875 68.3227C144.157 65.3905 143.745 61.9098 140.931 59.4785C137.414 56.4361 132.948 56.7687 129.604 60.3983C121.805 68.8669 114.027 77.357 106.256 85.8514C103.915 88.4101 101.095 90.0662 97.6514 90.5953C96.9798 90.6989 96.2932 90.7615 95.613 90.7637C88.2371 90.7788 80.859 90.7896 73.483 90.7745C71.2072 90.7702 69.7151 89.0687 70.0304 86.9354C70.2787 85.2663 71.6498 84.1802 73.6039 84.1758C79.0733 84.1629 84.5426 84.1758 90.0141 84.1694C91.9574 84.1672 93.9051 84.2363 95.8398 84.1046C100.227 83.8066 103.259 80.3173 103.082 75.9038C102.922 71.8963 99.4586 68.7179 95.2438 68.7157C82.9016 68.7092 70.5573 68.7762 58.2151 68.6661C52.7889 68.6186 48.0019 70.2617 43.7806 73.5006C38.8683 77.2685 35.1479 82.2282 30.972 86.6935V86.6957ZM28.4694 126.689C32.9714 124.087 37.3979 121.528 41.8696 118.942C34.8305 106.751 27.867 94.6913 20.8667 82.5672C16.3388 85.1821 11.9361 87.7235 7.46437 90.3038C14.4948 102.48 21.4584 114.546 28.4694 126.689ZM89.7896 32.7126C90.4827 32.9933 90.9361 33.2071 91.409 33.3647C95.084 34.5868 98.8325 34.6084 102.596 33.9283C107.679 33.0084 112.233 31.05 115.612 26.9496C119.574 22.141 121.105 16.3693 122.044 10.3839C122.077 10.1702 121.742 9.75992 121.494 9.66708C120.015 9.11431 118.529 8.56586 117.013 8.1297C112.364 6.79097 107.627 6.02012 102.87 7.30487C95.3431 9.33671 90.6381 14.5318 87.7901 21.5537C87.1467 23.1407 86.9091 24.894 86.4859 26.5696L86.8141 26.6991C87.0279 26.5847 87.2482 26.4789 87.4576 26.3558C90.0163 24.8228 92.5663 23.2789 95.1315 21.7566C98.3142 19.8673 101.497 17.9758 104.701 16.1254C106.39 15.1494 108.381 15.6741 109.305 17.2568C110.222 18.8287 109.739 20.718 108.143 21.7826C107.934 21.9229 107.716 22.046 107.497 22.1755C102.425 25.1769 97.3534 28.1782 92.2856 31.1839C91.5191 31.6373 90.7677 32.1167 89.7874 32.7212L89.7896 32.7126ZM63.9176 36.6036C59.9187 26.9496 44.3441 25.5223 36.6767 33.9434C42.7506 45.1174 52.2102 46.7865 60.6053 42.6818C60.1648 42.5695 59.7999 42.4702 59.4329 42.386C55.6499 41.5223 51.8561 40.7039 48.0882 39.7841C46.3177 39.3523 45.3093 37.545 45.7304 35.8629C46.173 34.0967 47.8853 33.0192 49.6947 33.382C50.3641 33.5158 51.027 33.6799 51.692 33.8311C55.7147 34.7423 59.7395 35.6556 63.9176 36.6014V36.6036Z" fill="white"/>
</g>
<defs>
<clipPath id="clip0_36_3418">
<rect width="150" height="134.156" fill="white"/>
</clipPath>
</defs>
</svg>
