<svg width="150" height="150" viewBox="0 0 150 150" fill="none" xmlns="http://www.w3.org/2000/svg">
<g id="Layer_1" clip-path="url(#clip0_36_3428)">
<path id="Vector" d="M0 114.81C0.73808 112.26 1.48945 109.716 2.21276 107.161C5.95778 93.9262 9.69542 80.688 13.439 67.4513C14.0309 65.3598 15.5971 64.4886 17.6903 65.0787C25.0888 67.1673 32.4844 69.2676 39.8844 71.3502C41.0122 71.6683 41.8905 72.2614 42.3038 73.2761C45.6694 72.9995 48.948 72.6755 52.2324 72.4744C55.5464 72.2703 58.8678 72.2007 62.1847 72.038C62.6541 72.0159 63.1546 71.8872 63.5753 71.6757C67.9314 69.5013 72.4809 68.1169 77.401 68.3979C81.5992 68.6375 85.6468 69.667 89.6251 70.9893C94.1111 72.4803 98.4244 74.378 102.665 76.4592C102.998 76.6219 103.468 76.6633 103.829 76.5731C104.899 76.3053 105.953 75.9637 106.998 75.6027C107.228 75.5229 107.506 75.2803 107.568 75.0584C107.926 73.7627 108.778 73.0187 110.034 72.6622C117.195 70.6358 124.38 68.6849 131.505 66.5386C134.429 65.6586 136.056 66.5875 136.884 69.5709C141.114 84.8177 145.45 100.034 149.753 115.26C150.456 117.748 149.681 119.191 147.203 119.898C139.856 121.993 132.508 124.078 125.159 126.161C123.138 126.733 121.526 125.828 120.942 123.813C120.799 123.319 120.663 122.824 120.534 122.37C119.194 122.595 117.895 122.791 116.608 123.05C116.432 123.086 116.254 123.408 116.186 123.63C115.062 127.362 112.637 129.736 108.864 130.706C108.391 130.828 107.903 130.888 107.374 130.986C107.249 134.065 106.067 136.663 103.64 138.608C101.206 140.557 98.4067 141.099 95.3511 140.542C94.21 144.326 91.8112 146.81 87.9437 147.608C84.0835 148.405 80.9688 146.869 78.3383 144.008C77.5368 146.009 76.3839 147.586 74.6347 148.629C71.2528 150.645 67.8414 150.364 64.6912 148.243C62.1065 146.503 59.7166 144.464 57.3031 142.48C49.9961 136.473 42.8588 130.274 36.3268 123.413C34.3945 121.383 32.5862 119.234 30.6717 117.086C30.5978 117.308 30.5093 117.546 30.4399 117.79C29.9852 119.401 29.5453 121.015 29.0789 122.621C28.515 124.563 26.9119 125.454 24.956 124.901C17.4408 122.777 9.92865 120.635 2.41205 118.515C1.14845 118.163 0.45761 117.283 0 116.141C0 115.698 0 115.254 0 114.81ZM54.8718 78.74C54.7316 78.6838 54.6873 78.6468 54.646 78.6512C50.3666 79.0624 46.0872 79.484 41.8063 79.8848C41.2424 79.9381 41.0372 80.2354 40.8941 80.7427C38.3654 89.7447 35.8323 98.7452 33.2564 107.734C33.0069 108.605 33.1295 109.272 33.5812 110.013C35.5297 113.213 37.9683 116.016 40.5368 118.708C48.8742 127.439 58.0987 135.167 67.5609 142.624C68.0864 143.038 68.7492 143.328 69.3943 143.526C70.5501 143.882 71.6129 143.376 72.1916 142.317C72.8677 141.081 72.5784 139.685 71.4196 138.571C69.7323 136.951 68.0392 135.336 66.3593 133.709C65.0278 132.418 64.9451 130.511 66.1453 129.205C67.3852 127.856 69.2585 127.803 70.6918 129.058C75.1174 132.937 79.5458 136.811 83.9773 140.681C85.3029 141.84 87.2617 141.741 88.4323 140.47C89.6147 139.186 89.5675 137.243 88.2847 136.015C87.4152 135.182 86.5222 134.372 85.5951 133.602C82.6576 131.168 79.6994 128.757 76.75 126.337C75.7196 125.491 75.324 124.393 75.6104 123.106C75.8702 121.935 76.626 121.147 77.7848 120.812C78.9701 120.471 79.9916 120.824 80.9305 121.601C84.2504 124.346 87.6012 127.054 90.9123 129.81C92.4047 131.052 93.807 132.403 95.2965 133.65C96.3903 134.565 97.6627 134.724 98.9632 134.132C100.259 133.542 100.96 132.487 101.043 131.058C101.124 129.64 100.374 128.662 99.3397 127.797C95.1075 124.262 90.8946 120.703 86.6801 117.147C85.4446 116.104 85.0873 114.647 85.7073 113.301C86.6048 111.35 88.9947 110.873 90.7351 112.33C95.2846 116.137 99.8194 119.963 104.369 123.772C104.683 124.035 105.048 124.271 105.429 124.42C107.033 125.049 108.837 124.399 109.713 122.916C110.628 121.366 110.282 119.505 108.79 118.285C98.7876 110.1 88.7748 101.93 78.7767 93.7413C78.418 93.447 78.1258 93.4499 77.7124 93.5579C76.192 93.9543 74.6701 94.3566 73.1275 94.648C72.2211 94.8196 71.5509 95.2101 70.9856 95.9304C69.0311 98.4183 66.8745 100.711 64.2705 102.539C62.3264 103.904 60.2273 104.898 57.8182 105.02C53.4916 105.237 49.8248 102.233 48.8757 97.6861C48.0608 93.7827 48.7989 90.0464 50.2441 86.4137C51.3541 83.6255 52.9203 81.1022 54.8718 78.74ZM109.019 81.6139C107.513 82.0665 106.081 82.423 104.704 82.9304C103.275 83.4554 102.031 83.2587 100.689 82.5694C94.6839 79.4899 88.5046 76.8408 81.8767 75.3912C79.3938 74.8484 76.8769 74.4328 74.3394 74.773C71.0181 75.2182 67.8857 76.2905 65.0544 78.1276C59.9705 81.429 56.5281 85.9404 55.1272 91.9013C54.736 93.5653 54.6253 95.2737 55.204 96.9362C55.7383 98.4716 56.875 99.0691 58.3954 98.5233C59.2162 98.229 60.0162 97.8 60.7337 97.3016C62.877 95.8136 64.5938 93.8759 66.1984 91.8377C67.6303 90.0183 69.4873 88.9548 71.7502 88.4756C73.6427 88.0748 75.5322 87.6059 77.3685 87.0009C78.9067 86.4936 80.1466 86.708 81.3984 87.736C91.5027 96.0266 101.641 104.277 111.741 112.572C112.87 113.5 113.915 114.566 114.839 115.7C115.744 116.811 115.656 116.888 117.095 116.619C117.431 116.555 117.762 116.455 118.099 116.382C118.652 116.263 118.745 115.998 118.586 115.434C116.264 107.295 113.97 99.1475 111.669 91.0034C110.793 87.9047 109.921 84.8059 109.019 81.6124V81.6139ZM114.526 77.956C118.434 91.777 122.318 105.518 126.215 119.302C131.858 117.7 137.4 116.128 143.007 114.536C139.1 100.709 135.221 86.9832 131.322 73.1873C125.72 74.7774 120.174 76.3527 114.526 77.956ZM7.03538 113.267C12.6802 114.869 18.2247 116.443 23.8296 118.035C27.7341 104.217 31.6164 90.4754 35.5135 76.6825C29.8568 75.0777 24.3153 73.5068 18.7192 71.9197C14.8177 85.7289 10.9383 99.4567 7.03538 113.266V113.267Z" fill="white"/>
<path id="Vector_2" d="M106.61 31.0174C106.611 48.1324 92.7499 62.0184 75.6811 62.0036C58.5872 61.9874 44.7467 48.1324 44.7349 31.0218C44.7231 13.8831 58.599 -0.0133026 75.715 9.55637e-06C92.7986 0.0133217 106.608 13.8772 106.61 31.0174ZM100.334 30.97C100.272 17.2674 89.1806 6.21383 75.594 6.31293C61.9218 6.41204 50.982 17.4449 51.0469 31.0691C51.1119 44.7392 62.1491 55.7528 75.7298 55.6952C89.3621 55.6389 100.396 44.5514 100.334 30.97Z" fill="white"/>
<path id="Vector_3" d="M72.3584 48.4163C69.9729 47.8262 67.769 46.9402 65.7732 45.5942C65.0411 45.1001 64.3236 44.5736 63.652 43.9997C62.2895 42.8356 62.1286 40.9142 63.2372 39.5652C64.3266 38.2399 66.2869 38.0299 67.6612 39.1688C69.6762 40.8402 71.9362 41.9392 74.5136 42.4066C77.2651 42.9051 79.5517 41.8845 80.5968 39.6584C81.4191 37.9071 81.1843 36.6646 79.534 35.6603C78.2261 34.8645 76.7854 34.2448 75.3373 33.7345C72.7171 32.8115 70.0526 32.0128 67.7601 30.365C65.2108 28.5324 63.6313 26.1037 63.6889 22.8984C63.7391 20.0037 64.9082 17.4981 66.9409 15.4288C68.293 14.0517 69.8976 13.0696 71.7605 12.5489C72.2063 12.4247 72.4381 12.2353 72.3658 11.7398C72.3274 11.4751 72.3495 11.1985 72.3658 10.9278C72.478 9.21644 73.8286 7.91333 75.4967 7.89854C77.1574 7.88523 78.6616 9.18094 78.6202 10.8893C78.5907 12.1274 79.038 12.5667 80.1407 12.9439C82.383 13.7086 84.1603 15.1877 85.5464 17.118C86.6314 18.6296 86.373 20.5259 84.95 21.5879C83.5344 22.6455 81.6242 22.3659 80.5097 20.8823C78.8181 18.6296 76.5374 18.0187 73.901 18.5024C71.9096 18.8663 70.3493 20.5673 70.0128 22.573C69.8312 23.6601 70.3154 24.5092 71.1775 25.0239C72.3923 25.7502 73.6722 26.3906 74.9815 26.9275C76.933 27.7278 78.9671 28.3238 80.9039 29.1551C82.8229 29.979 84.4865 31.2215 85.7088 32.958C87.9378 36.1262 87.7695 39.4306 86.0822 42.7306C84.6223 45.5853 82.2974 47.4653 79.2225 48.3941C79.0587 48.4444 78.8978 48.508 78.6704 48.5894C78.6704 49.0139 78.6867 49.4547 78.6675 49.894C78.5922 51.7 77.243 53.009 75.4834 52.9972C73.7666 52.9854 72.4381 51.6734 72.3628 49.9043C72.3436 49.4384 72.3599 48.971 72.3599 48.4178L72.3584 48.4163Z" fill="white"/>
</g>
<defs>
<clipPath id="clip0_36_3428">
<rect width="150" height="150" fill="white"/>
</clipPath>
</defs>
</svg>
