<svg width="150" height="145" viewBox="0 0 150 145" fill="none" xmlns="http://www.w3.org/2000/svg">
<g id="Layer_1" clip-path="url(#clip0_36_3400)">
<path id="Vector" d="M85.0338 119.97H83.9994C58.6367 119.97 33.2755 119.97 7.91269 119.968C4.10327 119.968 1.15168 117.782 0.284484 114.293C0.117295 113.62 0.0485439 112.906 0.0422938 112.21C0.0172935 109.112 0.0297937 106.013 0.0313562 102.915C0.0313562 100.948 0.979804 100.009 2.9642 100.009C49.7569 100.009 96.548 100.009 143.341 100.009C143.861 100.009 144.38 100.009 145.031 100.009C145.031 99.6774 145.031 99.379 145.031 99.0821C145.031 91.9742 145.027 84.8647 145.034 77.7569C145.036 75.9146 146.492 74.7224 148.169 75.1599C149.278 75.449 149.991 76.4459 149.992 77.76C149.999 82.1085 149.995 86.4569 149.995 90.8054C149.995 97.9664 150.002 105.127 149.992 112.287C149.988 115.907 147.764 118.853 144.358 119.71C143.586 119.904 142.763 119.96 141.964 119.962C125.012 119.976 108.061 119.973 91.1104 119.973C90.7761 119.973 90.4417 119.973 90.0386 119.973C90.0229 120.273 89.9979 120.523 89.9979 120.774C89.9964 124.603 89.9901 128.429 89.9979 132.257C90.0089 136.775 93.2683 140.006 97.8011 140.011C100.196 140.012 102.592 139.997 104.987 140.018C106.206 140.029 107.134 140.798 107.422 141.951C107.673 142.961 107.214 144.131 106.25 144.606C105.759 144.848 105.156 144.959 104.603 144.959C92.2605 144.978 79.9181 144.975 67.5758 144.975C60.9617 144.975 54.3475 144.979 47.7334 144.972C45.799 144.968 44.5631 143.315 45.2006 141.618C45.5646 140.65 46.4506 140.029 47.5678 140.017C49.1819 139.998 50.7959 140.02 52.4116 140.011C56.7382 139.986 60.0039 136.717 60.0304 132.386C60.0398 130.823 60.0242 129.261 60.0351 127.698C60.046 126.142 61.0664 125.034 62.4851 125.014C63.918 124.993 65.0227 126.137 64.9852 127.72C64.9289 130.161 64.9008 132.609 64.6758 135.036C64.5102 136.818 63.6055 138.382 62.5351 139.94H87.4385C87.3495 139.768 87.2838 139.609 87.1885 139.468C85.7276 137.314 85.0385 134.926 85.0354 132.334C85.0291 128.532 85.0338 124.732 85.0338 120.931C85.0338 120.648 85.0338 120.365 85.0338 119.974V119.97ZM5.00328 104.996C5.00328 107.626 4.96266 110.176 5.02203 112.721C5.04703 113.773 5.6986 114.521 6.7033 114.848C7.15956 114.995 7.67519 114.999 8.16425 114.999C42.6115 115.006 77.0572 115.006 111.504 115.006C121.762 115.006 132.022 115.006 142.28 115.004C143.947 115.004 145.02 113.985 145.028 112.382C145.041 110.065 145.033 107.748 145.028 105.431C145.028 105.285 144.977 105.142 144.949 104.996H5.00328Z" fill="white"/>
<path id="Vector_2" d="M114.996 40.0052C117.151 40.0052 119.181 40.0208 121.21 39.988C121.481 39.9833 121.792 39.788 122.007 39.5958C123.371 38.3864 124.726 37.1677 126.059 35.9239C126.745 35.2833 127.515 34.988 128.457 34.9958C131.375 35.0208 134.29 35.002 137.208 35.0067C138.858 35.0083 140.012 36.052 139.993 37.5145C139.975 38.9552 138.848 39.963 137.231 39.9661C134.731 39.9724 132.231 39.9443 129.731 39.9911C129.292 39.9989 128.775 40.2083 128.439 40.4943C127.071 41.6599 125.753 42.8802 124.434 44.1021C123.787 44.7006 123.054 44.9834 122.171 44.974C120.089 44.9537 118.004 44.9677 115.921 44.9677C115.642 44.9677 115.362 44.9677 115.04 44.9677V50.0053C115.379 50.0053 115.682 50.0053 115.987 50.0053C122.992 50.0053 129.998 50.0053 137.003 50.0053C137.211 50.0053 137.42 49.9975 137.628 50.0115C138.95 50.1006 139.981 51.1756 139.993 52.4663C140.004 53.7569 138.992 54.8475 137.668 54.9585C137.436 54.9788 137.2 54.9678 136.965 54.9678C129.986 54.9678 123.007 54.9678 116.028 54.9678H115.049V60.0054C115.718 60.0054 116.385 60.0054 117.051 60.0054C118.796 60.0054 120.54 60.0117 122.285 60.0023C123.371 59.996 124.184 60.4382 124.737 61.3789C125.345 62.4101 125.99 63.4195 126.582 64.4586C126.817 64.8695 127.09 65.0211 127.57 65.0179C130.851 64.9961 134.132 64.9914 137.414 65.0133C139.248 65.0258 140.447 66.6805 139.829 68.3258C139.443 69.3539 138.656 69.9461 137.568 69.9539C133.532 69.9836 129.495 69.9758 125.459 69.9539C124.532 69.9493 123.836 69.4586 123.357 68.6664C122.711 67.5977 122.079 66.5195 121.409 65.4664C121.275 65.2555 121.004 64.9945 120.793 64.9914C118.896 64.9539 117 64.9695 114.995 64.9695C114.995 65.2976 114.995 65.5726 114.995 65.8492C114.995 69.5992 114.999 73.3493 114.995 77.0993C114.989 81.7509 111.785 84.9666 107.146 84.9666C85.7398 84.9697 64.3333 84.9697 42.9269 84.9666C38.2331 84.9666 35.0362 81.7603 35.0315 77.0665C35.0283 73.343 35.0315 69.618 35.0299 65.8945C35.0299 65.6148 35.0299 65.3351 35.0299 64.9711C33.0377 64.9711 31.1189 64.9586 29.2002 64.9914C29.008 64.9945 28.7611 65.2351 28.6392 65.4289C27.9861 66.4617 27.3517 67.5086 26.7345 68.5633C26.1673 69.5321 25.3376 69.9758 24.2204 69.9727C20.3922 69.9618 16.5641 69.9727 12.7359 69.9649C11.1531 69.9618 10.0125 68.8883 10.0328 67.4524C10.0531 66.0351 11.164 65.0117 12.7203 65.007C15.95 64.9992 19.1782 64.993 22.4079 65.0164C22.9142 65.0195 23.211 64.8773 23.461 64.432C24.0329 63.4117 24.672 62.4273 25.2626 61.4164C25.8282 60.4492 26.6501 59.9913 27.772 59.9991C29.8814 60.0148 31.9908 60.0038 34.1002 60.0038C34.3815 60.0038 34.6611 60.0038 34.9846 60.0038V54.9663C34.6518 54.9663 34.3471 54.9663 34.044 54.9663C27.0392 54.9663 20.0329 54.9663 13.0281 54.9663C12.7672 54.9663 12.5047 54.9788 12.2484 54.9475C10.9406 54.7866 9.96089 53.6319 10.0359 52.3538C10.114 51.0194 11.1703 50.0162 12.5844 50.01C17.011 49.9944 21.4391 50.0037 25.8657 50.0022C28.883 50.0022 31.9002 50.0022 34.9737 50.0022V44.9662C34.7049 44.9662 34.4299 44.9662 34.1549 44.9662C32.0455 44.9662 29.9361 44.9552 27.8267 44.9724C26.9736 44.9787 26.2595 44.7084 25.6314 44.1318C24.2704 42.8802 22.911 41.6271 21.5094 40.4224C21.211 40.1661 20.7407 39.9927 20.3469 39.9864C17.7688 39.9474 15.1906 39.9724 12.6125 39.963C11.5562 39.9599 10.7531 39.488 10.2859 38.5364C9.84214 37.6349 9.97027 36.7583 10.5703 35.9661C11.0562 35.3255 11.7343 35.0098 12.5344 35.0067C15.6594 34.9989 18.786 34.952 21.9079 35.0442C22.5876 35.0645 23.3563 35.4692 23.9048 35.9161C25.297 37.0489 26.5673 38.327 27.9314 39.4958C28.2501 39.7693 28.7392 39.9693 29.1564 39.9802C31.0783 40.0302 33.0018 40.0021 35.033 40.0021C35.033 39.6724 35.033 39.3974 35.033 39.1224C35.033 35.3739 35.0268 31.6239 35.033 27.8754C35.0424 23.2175 38.2346 20.0065 42.8769 20.005C64.3349 20.0003 85.7929 20.0003 107.253 20.005C111.746 20.005 114.979 23.2472 114.993 27.741C115.004 31.5176 114.996 35.2926 114.996 39.0692C114.996 39.3505 114.996 39.6318 114.996 40.0021V40.0052ZM75.0334 24.9675C64.2786 24.9675 53.5254 24.9675 42.7706 24.9675C41.0222 24.9675 40.005 25.9832 39.9956 27.7207C39.9925 28.3723 39.9956 29.0223 39.9956 29.6738C39.9956 45.4787 39.9893 61.2851 40.0175 77.09C40.0175 77.7275 40.2175 78.4384 40.5425 78.9853C41.0503 79.84 41.955 80.0119 42.9269 80.0119C64.2521 80.0009 85.5789 80.0041 106.904 80.0041C109.132 80.0041 110.034 79.1087 110.034 76.8946C110.034 60.5679 110.034 44.2427 110.034 27.916C110.034 25.9191 109.074 24.966 107.062 24.966C96.3852 24.966 85.7101 24.966 75.0334 24.966V24.9675Z" fill="white"/>
<path id="Vector_3" d="M75.0352 0.0048779C97.401 0.0048779 119.767 0.0048779 142.133 0.00644042C145.939 0.00644042 148.877 2.19709 149.75 5.69244C149.894 6.26744 149.983 6.87214 149.984 7.46433C150.002 14.1035 149.998 20.7426 149.992 27.3833C149.992 28.6208 149.328 29.5489 148.256 29.8911C147.242 30.2161 146.064 29.8724 145.519 28.9349C145.222 28.4255 145.056 27.7661 145.053 27.1723C145.02 20.7942 145.033 14.4144 145.033 8.03465C145.033 5.87369 144.123 4.96899 141.942 4.96899C97.2619 4.96899 52.5834 4.96899 7.90321 4.96899C5.95319 4.96899 4.99537 5.93463 4.99537 7.90027C4.99537 14.0457 4.99537 20.1895 4.99537 26.3348C4.99537 26.6739 5.00006 27.0114 4.99381 27.3505C4.96256 28.8677 3.87973 29.9911 2.47034 29.9661C1.09064 29.9411 0.0390681 28.8317 0.0359431 27.3442C0.026568 22.3192 0.029693 17.2941 0.032818 12.2691C0.032818 10.4472 -0.0749956 8.61278 0.0890686 6.80495C0.446885 2.85491 3.63754 0.0205031 7.62508 0.00956545C14.7861 -0.00762223 21.9455 0.0048779 29.1066 0.0048779C44.4161 0.0048779 59.7256 0.0048779 75.0367 0.0048779H75.0352Z" fill="white"/>
<path id="Vector_4" d="M0.0330352 84.9636C0.0330352 82.5682 0.0299102 80.1729 0.0330352 77.7776C0.0361602 76.1557 1.03305 75.0322 2.47369 75.0072C3.93308 74.9822 4.9909 76.1385 4.99246 77.7823C4.99715 82.5995 4.99871 87.4152 4.99246 92.2324C4.9909 93.8293 3.94558 94.9668 2.50962 94.9653C1.07523 94.9653 0.0377227 93.8262 0.0330352 92.2262C0.0267851 89.8043 0.0314727 87.3839 0.0314727 84.962L0.0330352 84.9636Z" fill="white"/>
<path id="Vector_5" d="M149.994 37.5127C149.98 38.8611 148.814 39.9939 147.469 39.9642C146.119 39.9346 145 38.7627 145.038 37.4173C145.073 36.0923 146.2 35.0001 147.522 35.0064C148.875 35.0126 150.008 36.1611 149.994 37.5127Z" fill="white"/>
<path id="Vector_6" d="M4.99202 52.4646C5.00296 53.8146 3.86701 54.9631 2.51544 54.9646C1.16855 54.9677 0.0247847 53.8146 0.0357223 52.4662C0.0466599 51.1396 1.14355 50.0318 2.47169 50.0068C3.81857 49.9818 4.97952 51.1146 4.99202 52.463V52.4646Z" fill="white"/>
<path id="Vector_7" d="M4.99205 37.4535C5.01237 38.8003 3.87642 39.9566 2.5264 39.9644C1.21233 39.9722 0.0748137 38.8722 0.0357508 37.555C-0.00487462 36.2019 1.10295 35.0394 2.46078 35.0066C3.80454 34.9737 4.97174 36.1019 4.99205 37.4519V37.4535Z" fill="white"/>
<path id="Vector_8" d="M147.523 50.0069C148.872 50.0116 150.011 51.1679 149.994 52.5148C149.976 53.8679 148.815 54.9945 147.467 54.9648C146.148 54.9367 145.042 53.8117 145.036 52.4945C145.029 51.1413 146.17 50.0007 147.523 50.0054V50.0069Z" fill="white"/>
<path id="Vector_9" d="M4.99231 67.465C5.00637 68.8119 3.86417 69.965 2.51572 69.9666C1.20164 69.9681 0.0703797 68.8634 0.0360043 67.5462C6.64443e-05 66.1915 1.11102 65.0337 2.47197 65.0087C3.81886 64.9837 4.97981 66.115 4.99387 67.465H4.99231Z" fill="white"/>
<path id="Vector_10" d="M149.994 67.4728C150.002 68.8228 148.86 69.9681 147.51 69.965C146.194 69.9619 145.066 68.8525 145.038 67.5369C145.01 66.1806 146.122 65.029 147.481 65.0071C148.827 64.9853 149.985 66.1228 149.992 67.4728H149.994Z" fill="white"/>
<path id="Vector_11" d="M60.0332 60.0024H49.9956C49.9956 60.3118 49.9956 60.5899 49.9956 60.8665C49.9956 63.0274 50.0065 65.1868 49.9909 67.3462C49.98 68.8634 48.8815 69.9885 47.4753 69.9635C46.0956 69.94 45.0377 68.8322 45.0362 67.3478C45.0284 59.8258 44.9987 52.3039 45.0471 44.7835C45.0799 39.6194 49.2987 35.2959 54.4503 35.0162C59.6192 34.7365 64.1598 38.4662 64.8692 43.5866C64.9411 44.1007 64.9895 44.621 64.9895 45.1398C64.9973 52.4539 64.9958 59.7665 64.9926 67.0806C64.9926 67.34 65.0005 67.6041 64.9567 67.8587C64.7411 69.1338 63.5958 70.0494 62.3489 69.9603C61.0567 69.8681 60.052 68.815 60.0379 67.4587C60.0145 65.2728 60.0301 63.0868 60.0301 60.9009C60.0301 60.6212 60.0301 60.3399 60.0301 60.0024H60.0332ZM60.0332 54.9805C60.0332 54.6711 60.0332 54.4414 60.0332 54.2133C60.0332 51.1976 60.0395 48.182 60.0317 45.1663C60.0238 42.2194 57.8707 39.9803 55.0519 39.9694C52.1831 39.9584 50.005 42.1913 49.9972 45.1679C49.9894 48.2101 49.994 51.2508 49.9972 54.293C49.9972 54.5164 50.0284 54.7399 50.0456 54.9805H60.0332Z" fill="white"/>
<path id="Vector_12" d="M74.9963 60.038C74.9963 62.4802 75.0025 64.8943 74.9932 67.3084C74.9885 68.4866 74.3978 69.4006 73.4306 69.785C71.7806 70.4397 70.054 69.2397 70.04 67.3897C70.0181 64.6318 70.0337 61.8724 70.0337 59.1146C70.0337 52.0629 70.0337 45.0097 70.0337 37.9581C70.0337 35.9315 70.9634 34.9675 72.9947 35.0159C75.4072 35.0737 77.8682 34.9393 80.2213 35.3659C86.0855 36.43 90.2793 42.0644 89.9839 48.1051C89.6917 54.0802 85.0308 59.1521 79.1619 59.8224C77.8244 59.9755 76.4682 59.9662 74.9947 60.038H74.9963ZM75.0494 39.9722V55.002C75.9557 55.002 76.8104 55.0145 77.6651 55.0005C81.3338 54.9395 84.3229 52.288 84.962 48.5348C85.5355 45.1676 83.4167 41.666 80.1057 40.4253C78.4651 39.8097 76.7822 40.0097 75.0494 39.9722Z" fill="white"/>
<path id="Vector_13" d="M100.039 64.9475C101.837 65.3912 102.751 66.5506 102.447 67.9538C102.184 69.1616 101.214 69.9491 99.9138 69.9632C98.3528 69.9804 96.7903 69.9741 95.2278 69.9647C93.7731 69.9554 92.7121 69.071 92.5496 67.7522C92.3949 66.4959 93.2293 65.3959 94.6121 65.0381C94.734 65.0069 94.859 64.9819 95.0043 64.9491V40.0332C94.7528 39.9644 94.5262 39.9113 94.3059 39.841C93.1387 39.4675 92.4059 38.3644 92.5512 37.2081C92.7012 36.0206 93.6356 35.0644 94.8434 35.0269C96.6122 34.9722 98.384 34.9737 100.153 35.0222C101.383 35.0566 102.358 36.0487 102.484 37.255C102.606 38.4113 101.854 39.4957 100.681 39.8535C100.483 39.9144 100.279 39.9597 100.039 40.0238V64.9475Z" fill="white"/>
</g>
<defs>
<clipPath id="clip0_36_3400">
<rect width="150" height="144.97" fill="white"/>
</clipPath>
</defs>
</svg>
