<svg width="152" height="152" viewBox="0 0 152 152" fill="none" xmlns="http://www.w3.org/2000/svg">
<g id="2849814_note_audio_sound_music_multimedia_icon 1">
<g id="1">
<path id="Vector" d="M40.8055 133.594C35.913 133.594 31.1302 132.144 27.062 129.426C22.9938 126.709 19.8229 122.845 17.9504 118.325C16.0778 113.806 15.5877 108.832 16.542 104.033C17.4964 99.2347 19.8523 94.827 23.3118 91.3675C26.7713 87.9079 31.1791 85.552 35.9776 84.5977C40.7761 83.6434 45.7498 84.1335 50.2698 86.006C54.7898 87.8786 58.6529 91.0495 61.3707 95.1177C64.0884 99.1859 65.5387 103.969 65.5382 108.861C65.5303 115.418 62.922 121.705 58.2854 126.341C53.6489 130.978 47.3626 133.586 40.8055 133.594ZM40.8055 93.0318C37.6746 93.0312 34.6139 93.9591 32.0104 95.6981C29.4068 97.4371 27.3775 99.9091 26.1789 102.801C24.9804 105.694 24.6665 108.877 25.277 111.948C25.8874 115.018 27.3948 117.839 29.6084 120.053C31.8221 122.267 34.6426 123.775 37.7133 124.386C40.784 124.997 43.9669 124.684 46.8595 123.486C49.7521 122.288 52.2245 120.259 53.964 117.656C55.7035 115.053 56.6319 111.992 56.6319 108.861C56.6272 104.665 54.9584 100.642 51.9914 97.6744C49.0245 94.7069 45.0017 93.0373 40.8055 93.0318Z" fill="white"/>
<path id="Vector_2" d="M111.292 117.266C106.4 117.266 101.617 115.816 97.5491 113.098C93.481 110.381 90.3101 106.518 88.4375 101.998C86.5648 97.4782 86.0746 92.5046 87.0286 87.7062C87.9827 82.9078 90.3383 78.5 93.7976 75.0404C97.2568 71.5808 101.664 69.2246 106.463 68.2699C111.261 67.3153 116.235 67.805 120.755 69.677C125.275 71.5491 129.138 74.7196 131.856 78.7874C134.574 82.8552 136.025 87.6377 136.025 92.5301C136.018 99.0877 133.41 105.375 128.773 110.012C124.137 114.649 117.85 117.258 111.292 117.266ZM111.292 76.7037C108.161 76.7031 105.1 77.631 102.497 79.3702C99.8933 81.1093 97.8639 83.5815 96.6655 86.474C95.467 89.3666 95.1533 92.5496 95.764 95.6205C96.3747 98.6913 97.8823 101.512 100.096 103.726C102.31 105.94 105.131 107.448 108.202 108.058C111.273 108.669 114.456 108.355 117.348 107.157C120.241 105.958 122.713 103.929 124.452 101.326C126.191 98.7219 127.119 95.6611 127.119 92.5301C127.114 88.3341 125.445 84.3113 122.478 81.3443C119.511 78.3773 115.488 76.7084 111.292 76.7037Z" fill="white"/>
<path id="Vector_3" d="M61.085 113.314C59.9039 113.314 58.7713 112.845 57.9361 112.01C57.101 111.175 56.6318 110.042 56.6318 108.861V35.4171C56.6319 34.4068 56.9754 33.4266 57.606 32.6373C58.2367 31.8481 59.1169 31.2967 60.1023 31.0738L130.589 15.1049C131.241 14.9574 131.918 14.9585 132.569 15.1082C133.22 15.2578 133.83 15.5521 134.352 15.9693C134.874 16.3864 135.295 16.9157 135.585 17.518C135.875 18.1202 136.025 18.7799 136.025 19.4482V92.5299C136.025 93.7109 135.556 94.8436 134.721 95.6787C133.886 96.5138 132.753 96.983 131.572 96.983C130.391 96.983 129.258 96.5138 128.423 95.6787C127.588 94.8436 127.119 93.7109 127.119 92.5299V25.0235L65.5381 38.9766V108.861C65.5381 110.042 65.0689 111.175 64.2338 112.01C63.3987 112.845 62.266 113.314 61.085 113.314Z" fill="white"/>
<path id="Vector_4" d="M61.0823 60.1528C59.9848 60.1553 58.9251 59.7524 58.1065 59.0215C57.2878 58.2906 56.7679 57.2831 56.6465 56.1924C56.5251 55.1017 56.8107 54.0046 57.4485 53.1116C58.0863 52.2185 59.0315 51.5924 60.1026 51.3534L130.59 35.3845C131.742 35.1235 132.95 35.3308 133.949 35.9608C134.948 36.5907 135.656 37.5918 135.917 38.7437C136.178 39.8956 135.971 41.104 135.341 42.1031C134.711 43.1022 133.71 43.8101 132.558 44.0711L62.0708 60.04C61.7467 60.1151 61.415 60.1529 61.0823 60.1528Z" fill="white"/>
</g>
</g>
</svg>
