<svg width="150" height="145" viewBox="0 0 150 145" fill="none" xmlns="http://www.w3.org/2000/svg">
<g id="Layer_1" clip-path="url(#clip0_36_3344)">
<path id="Vector" d="M4.96599 49.8417C5.39117 49.8417 5.70068 49.8417 6.01018 49.8417C39.6417 49.8417 73.2733 49.8417 106.905 49.8417C108.846 49.8417 110.026 50.7968 110.008 52.3474C109.989 53.8794 108.834 54.8063 106.935 54.8063C73.3546 54.8063 39.7762 54.8063 6.1962 54.8063H4.96599C4.96599 55.1658 4.96599 55.4456 4.96599 55.7239C4.96599 82.7651 4.96599 109.805 4.96599 136.846C4.96599 138.963 5.88826 139.879 8.01416 139.879C22.5766 139.879 37.1391 139.879 51.7016 139.879C51.936 139.879 52.1705 139.874 52.405 139.879C53.8791 139.911 54.9842 140.977 54.9842 142.361C54.9842 143.743 53.8775 144.832 52.4034 144.837C47.7671 144.851 43.1292 144.843 38.4928 144.843C28.3338 144.843 18.1732 144.843 8.01416 144.843C3.17147 144.843 0.00292969 141.672 0.00292969 136.818C0.00292969 103.838 0.00292969 70.8569 0.00292969 37.8772C0.00292969 32.9751 3.15584 29.8316 8.07044 29.8316C39.3838 29.8316 70.6956 29.83 102.009 29.8472C102.611 29.8472 103.272 29.9629 103.802 30.2286C104.768 30.7132 105.192 31.8903 104.923 32.9016C104.61 34.0756 103.675 34.7884 102.376 34.7915C97.9213 34.8009 93.4663 34.7962 89.0128 34.7962C61.9981 34.7962 34.9835 34.7962 7.96883 34.7962C5.88513 34.7962 4.97068 35.7091 4.97068 37.7928C4.97068 41.4912 4.97068 45.1913 4.97068 48.8897C4.97068 49.1711 4.97068 49.454 4.97068 49.837L4.96599 49.8417Z" fill="white"/>
<path id="Vector_2" d="M35.7947 66.7428C36.4747 67.032 37.0296 67.193 37.5033 67.4853C39.2087 68.5373 40.8969 69.619 42.5711 70.7226C42.9744 70.9884 43.2792 70.9696 43.709 70.7789C45.3004 70.0755 46.9073 69.408 48.5283 68.7765C48.9425 68.6155 49.1536 68.4248 49.2458 67.9839C49.6428 66.0487 50.0774 64.1198 50.4979 62.1877C50.8543 60.548 51.7125 59.8508 53.4007 59.8492C56.1362 59.8445 58.8702 59.8445 61.6057 59.8492C63.3018 59.8523 64.1537 60.537 64.5132 62.1815C64.9369 64.112 65.3714 66.0394 65.7653 67.9761C65.856 68.4232 66.0686 68.6092 66.4781 68.7702C68.121 69.4174 69.7358 70.1364 71.3818 70.7758C71.6804 70.8914 72.1524 70.8742 72.4182 70.7132C74.0642 69.7144 75.6743 68.6577 77.2953 67.6166C78.8741 66.6037 79.876 66.699 81.1844 68.0043C83.1024 69.9176 85.0189 71.8325 86.9306 73.752C88.0952 74.9213 88.2171 76.003 87.3355 77.3958C86.2757 79.0668 85.2127 80.7347 84.1263 82.3885C83.8668 82.7825 83.859 83.0841 84.056 83.5234C84.7656 85.1116 85.4378 86.7185 86.0631 88.3411C86.2366 88.7913 86.4492 88.9945 86.9166 89.0898C88.8533 89.4853 90.7823 89.9152 92.7112 90.3435C94.3025 90.6968 94.9966 91.5643 95.0013 93.2103C95.0075 95.9709 95.0075 98.733 95.0013 101.494C94.9966 103.097 94.3103 103.971 92.7612 104.323C90.8339 104.761 88.9065 105.197 86.9681 105.584C86.4695 105.684 86.2397 105.88 86.0537 106.363C85.43 107.987 84.75 109.589 84.0466 111.181C83.8684 111.585 83.8527 111.871 84.0982 112.247C85.1986 113.922 86.2757 115.612 87.348 117.305C88.2077 118.66 88.0936 119.753 86.9666 120.889C85.0048 122.868 83.0352 124.841 81.0594 126.808C79.9214 127.939 78.8209 128.05 77.4766 127.189C75.7884 126.109 74.1001 125.029 72.4244 123.93C72.0587 123.691 71.7726 123.687 71.3615 123.87C69.7467 124.586 68.1148 125.263 66.4703 125.906C66.053 126.068 65.8544 126.268 65.7638 126.707C65.3683 128.644 64.9337 130.572 64.5117 132.502C64.1537 134.145 63.3018 134.838 61.6073 134.841C58.8468 134.845 56.0846 134.847 53.3241 134.841C51.7375 134.838 50.8527 134.123 50.5135 132.58C50.0821 130.625 49.6491 128.669 49.2458 126.707C49.1567 126.27 48.9582 126.07 48.5392 125.906C46.8948 125.265 45.2644 124.585 43.6496 123.872C43.2401 123.691 42.9556 123.694 42.5851 123.936C40.9094 125.035 39.2212 126.115 37.5267 127.187C36.1589 128.053 35.0929 127.936 33.9471 126.798C31.9697 124.833 29.9969 122.865 28.0352 120.886C26.8987 119.74 26.794 118.676 27.6631 117.305C28.7089 115.656 29.75 114.004 30.8285 112.378C31.1209 111.936 31.1506 111.603 30.9255 111.105C30.2189 109.545 29.5671 107.957 28.9481 106.36C28.7777 105.919 28.5854 105.692 28.1071 105.595C26.1953 105.208 24.2961 104.767 22.389 104.359C20.7086 103.999 20.0099 103.151 20.0067 101.412C20.0036 98.6767 20.0036 95.9428 20.0067 93.2072C20.0099 91.5284 20.7164 90.6874 22.3765 90.3326C24.3086 89.9199 26.2422 89.5119 28.1633 89.0492C28.4447 88.982 28.7652 88.674 28.8855 88.3974C29.5983 86.781 30.233 85.1319 30.9473 83.5171C31.1412 83.081 31.1381 82.7762 30.877 82.3807C29.789 80.7285 28.7277 79.059 27.6678 77.388C26.7753 75.9811 26.8909 74.9354 28.0727 73.7505C30.0204 71.7934 31.9525 69.8207 33.9455 67.9089C34.4613 67.415 35.1726 67.1242 35.79 66.7428H35.7947ZM54.9936 129.837H60.0191C60.4459 127.878 60.8883 125.954 61.2775 124.017C61.5338 122.739 62.2013 121.912 63.5019 121.607C65.9529 121.033 68.2523 120.075 70.3939 118.757C71.4959 118.079 72.5323 118.107 73.6046 118.813C75.1475 119.831 76.7044 120.825 78.2738 121.801C78.4583 121.915 78.8631 121.959 78.9866 121.843C80.1027 120.792 81.1782 119.701 82.2958 118.591C81.2344 116.933 80.2622 115.303 79.1789 113.75C78.2738 112.455 78.2425 111.27 79.0898 109.928C80.3341 107.959 81.2016 105.803 81.7268 103.535C82.0582 102.108 82.8711 101.359 84.2951 101.09C86.2053 100.731 88.0967 100.27 90.0069 99.8491V94.8204C88.0592 94.3984 86.135 93.9529 84.1982 93.5699C82.8805 93.3088 82.0707 92.6023 81.7597 91.2736C81.1985 88.8741 80.2575 86.6216 78.9694 84.5238C78.2644 83.3749 78.2676 82.3057 79.0288 81.1771C80.048 79.6671 81.0125 78.1195 81.9707 76.5704C82.0848 76.386 82.1239 75.9811 82.0066 75.8561C80.9578 74.7415 79.8651 73.6661 78.7631 72.5578C77.0545 73.6536 75.3913 74.6712 73.7813 75.7654C72.5807 76.5798 71.4615 76.5986 70.2297 75.8264C68.2555 74.5883 66.1171 73.6801 63.8489 73.1627C62.3279 72.8157 61.5229 71.9935 61.2447 70.4647C60.9023 68.5795 60.4287 66.7162 60.0113 64.8435H54.9904C54.5652 66.7959 54.1197 68.7202 53.7352 70.657C53.4726 71.9763 52.7567 72.7797 51.4311 73.0893C49.0832 73.6364 46.8666 74.5414 44.8189 75.8076C43.5543 76.5892 42.4257 76.572 41.2002 75.7326C39.5979 74.6352 37.9331 73.627 36.4106 72.6531C35.171 73.8802 34.0127 75.0291 32.8138 76.2171C33.8392 77.8225 34.8725 79.5061 35.9761 81.1443C36.7545 82.2994 36.7592 83.3874 36.0308 84.5598C34.7724 86.5841 33.8439 88.7663 33.303 91.0844C32.9623 92.5397 32.1525 93.3229 30.6957 93.5902C28.9824 93.9044 27.2848 94.3061 25.5888 94.7016C25.3637 94.7548 25.0136 94.9924 25.0089 95.1518C24.9651 96.7056 24.9823 98.2609 24.9823 99.835C27.0222 100.281 28.9762 100.715 30.9333 101.129C32.004 101.356 32.845 101.866 33.1248 102.982C33.8017 105.678 34.8553 108.207 36.2856 110.591C36.778 111.412 36.7139 112.292 36.223 113.116C35.8901 113.675 35.5243 114.215 35.1742 114.763C34.3676 116.028 33.561 117.293 32.8294 118.44C34.0674 119.675 35.2242 120.828 36.4169 122.018C38.0066 121.002 39.6901 119.964 41.3315 118.863C42.4867 118.088 43.5715 118.087 44.747 118.817C46.7947 120.087 49.0035 121.01 51.3498 121.558C52.741 121.884 53.4882 122.679 53.754 124.072C54.1182 125.987 54.5699 127.885 54.9951 129.838L54.9936 129.837Z" fill="white"/>
<path id="Vector_3" d="M120.051 34.7976C117.539 34.7976 115.122 34.8054 112.706 34.7945C111.343 34.7882 110.25 34.0176 110.133 32.7748C110.07 32.1074 110.278 31.3133 110.617 30.7224C113.872 25.0575 117.18 19.4238 120.472 13.7808C122.873 9.66654 125.355 5.59761 127.636 1.4177C128.667 -0.473733 131.343 -0.473733 132.422 1.40519C138.054 11.225 143.802 20.9792 149.504 30.7599C150.727 32.8577 149.592 34.7913 147.146 34.796C144.805 34.8007 142.465 34.796 140.024 34.796C140.024 35.1587 140.024 35.4604 140.024 35.7636C140.024 46.0805 140.024 56.3959 140.024 66.7128C140.024 66.9738 140.036 67.2349 140.013 67.4944C139.897 68.8184 138.8 69.8266 137.51 69.8094C136.222 69.7906 135.153 68.7527 135.064 67.4318C135.053 67.2755 135.059 67.1192 135.059 66.9629C135.059 55.6049 135.059 44.2454 135.059 32.8874C135.059 30.7365 135.953 29.8345 138.084 29.833C139.745 29.8314 141.407 29.833 143.228 29.833C138.817 22.2688 134.474 14.8203 130.041 7.21705C125.627 14.7859 121.284 22.2297 116.892 29.7626C117.17 29.7923 117.359 29.8298 117.548 29.8314C119.163 29.8361 120.78 29.8236 122.394 29.8361C123.948 29.8486 125.014 30.885 125.014 32.4309C125.014 45.1958 125.088 57.9622 124.964 70.727C124.875 79.9872 123.917 89.1739 121.749 98.2059C119.71 106.694 116.656 114.761 111.746 122.038C103.754 133.884 92.6785 141.051 78.6772 143.785C73.3218 144.831 67.9164 144.912 62.4953 144.838C61.0822 144.82 60.0099 143.691 60.0271 142.334C60.0443 140.969 61.115 139.905 62.5516 139.888C64.5837 139.863 66.6174 139.936 68.6479 139.864C87.3121 139.2 101.342 130.893 110.375 114.436C114.128 107.599 116.376 100.226 117.853 92.6004C119.373 84.7533 120.018 76.8186 120.043 68.8355C120.078 57.7636 120.054 46.6917 120.056 35.6198C120.056 35.3869 120.056 35.1555 120.056 34.7991L120.051 34.7976Z" fill="white"/>
<path id="Vector_4" d="M64.8496 9.82431C80.5329 9.82431 96.2161 9.82431 111.899 9.82431C112.16 9.82431 112.421 9.81181 112.681 9.83369C113.997 9.93999 115.021 11.0389 115.01 12.3238C114.999 13.5853 114.013 14.6482 112.725 14.7764C112.492 14.7999 112.256 14.7889 112.021 14.7889C80.6548 14.7889 49.2883 14.7889 17.9218 14.7889C15.9037 14.7889 14.9705 15.7284 14.9705 17.7558C14.9705 19.2143 14.9799 20.6743 14.9674 22.1327C14.9533 23.6709 13.8982 24.7885 12.4851 24.7901C11.0767 24.7901 10.0043 23.663 10.0106 22.128C10.0184 20.1756 9.88552 18.2013 10.1372 16.2786C10.6452 12.4051 13.7293 9.83838 17.642 9.82744C23.7899 9.81025 29.9378 9.82275 36.0873 9.82275C45.6742 9.82275 55.2612 9.82275 64.8481 9.82275L64.8496 9.82431Z" fill="white"/>
<path id="Vector_5" d="M140.024 117.536C140.024 123.997 140.024 130.457 140.024 136.918C140.024 141.656 136.821 144.846 132.069 144.846C127.274 144.846 122.482 144.854 117.688 144.84C115.777 144.834 114.558 143.108 115.238 141.426C115.641 140.432 116.54 139.882 117.806 139.882C122.547 139.879 127.288 139.88 132.031 139.882C134.148 139.882 135.057 138.963 135.057 136.827C135.057 123.801 135.062 110.776 135.05 97.7496C135.05 96.546 135.42 95.5893 136.561 95.0813C138.223 94.3404 140.002 95.5565 140.016 97.4511C140.038 100.316 140.022 103.182 140.024 106.048C140.024 109.878 140.024 113.708 140.024 117.538V117.536Z" fill="white"/>
<path id="Vector_6" d="M140.011 77.3188C140.024 78.6647 138.875 79.8183 137.528 79.8152C136.205 79.8121 135.086 78.7131 135.058 77.3891C135.028 76.0245 136.133 74.8756 137.493 74.8552C138.842 74.8349 139.999 75.9682 140.011 77.3188Z" fill="white"/>
<path id="Vector_7" d="M44.9784 22.3222C44.9737 23.6712 43.8154 24.8107 42.4695 24.792C41.1189 24.7716 39.9934 23.6086 40.02 22.2596C40.0466 20.9341 41.1658 19.8336 42.4898 19.832C43.8435 19.8289 44.9831 20.97 44.9799 22.3222H44.9784Z" fill="white"/>
<path id="Vector_8" d="M22.4517 39.8406C23.8023 39.8203 24.9574 40.9489 24.97 42.3026C24.9825 43.65 23.8382 44.8037 22.4892 44.8005C21.1699 44.7974 20.046 43.6985 20.0116 42.3761C19.9756 41.0239 21.0949 39.8609 22.4517 39.8406Z" fill="white"/>
<path id="Vector_9" d="M20.0146 22.1968C20.0834 20.8353 21.2746 19.7583 22.6236 19.8349C23.9757 19.9115 25.059 21.1261 24.9668 22.4626C24.8761 23.7882 23.71 24.8449 22.3985 24.7901C21.0463 24.7323 19.9474 23.538 20.0146 22.1984V22.1968Z" fill="white"/>
<path id="Vector_10" d="M30.0177 22.1967C30.0865 20.8368 31.2839 19.7535 32.6266 19.8332C33.9819 19.9145 35.062 21.126 34.9698 22.4625C34.8792 23.7912 33.7146 24.8448 32.4015 24.7885C31.0494 24.7306 29.9489 23.5348 30.0177 22.1952V22.1967Z" fill="white"/>
<path id="Vector_11" d="M12.4696 39.8404C13.8186 39.8295 14.9676 40.9737 14.966 42.3243C14.966 43.678 13.8155 44.8144 12.4649 44.8019C11.1472 44.7894 10.028 43.6749 10.0076 42.3571C9.98575 41.005 11.1144 39.8529 12.4696 39.842V39.8404Z" fill="white"/>
<path id="Vector_12" d="M32.4856 44.8004C31.1381 44.7941 29.9986 43.6342 30.0173 42.2883C30.0361 40.9284 31.1881 39.8107 32.545 39.8404C33.8674 39.8686 34.971 40.9909 34.9772 42.3102C34.9835 43.6592 33.8346 44.8066 32.4871 44.8004H32.4856Z" fill="white"/>
<path id="Vector_13" d="M39.9704 97.3227C40.0142 86.9745 48.9977 78.9117 59.3427 79.9746C68.0793 80.8719 74.8931 88.3016 74.9854 97.0288C75.0026 98.631 74.0021 99.7862 72.564 99.8237C71.1337 99.8612 70.0895 98.7264 70.0129 97.146C69.9707 96.266 69.8801 95.3765 69.694 94.5183C68.4201 88.644 62.9755 84.5844 56.7526 84.833C51.0204 85.0627 45.9339 89.7022 45.1226 95.4422C43.9033 104.065 51.0627 111.01 59.7929 109.678C61.3717 109.437 62.602 110.225 62.8317 111.624C63.0756 113.108 62.1893 114.267 60.6042 114.541C50.8219 116.226 41.8056 109.79 40.2111 99.966C40.0705 99.0953 40.0454 98.2059 39.9673 97.3242L39.9704 97.3227Z" fill="white"/>
<path id="Vector_14" d="M70.0268 110.166C68.6512 110.168 67.5319 109.058 67.5366 107.698C67.5429 106.339 68.6887 105.212 70.044 105.233C71.3711 105.251 72.4747 106.355 72.4934 107.679C72.5122 109.036 71.393 110.164 70.0252 110.166H70.0268Z" fill="white"/>
</g>
<defs>
<clipPath id="clip0_36_3344">
<rect width="150" height="144.857" fill="white"/>
</clipPath>
</defs>
</svg>
