<svg width="150" height="150" viewBox="0 0 150 150" fill="none" xmlns="http://www.w3.org/2000/svg">
<g id="Layer_1" clip-path="url(#clip0_36_3360)">
<path id="Vector" d="M26.6696 137.551C30.7179 136.089 34.607 134.684 38.649 133.224C37.2991 131.733 36.0147 130.384 34.8146 128.946C34.3948 128.443 34.0374 127.761 33.9063 127.098C33.6769 125.939 34.2871 124.82 35.2188 124.299C36.1349 123.789 37.31 123.991 38.0966 124.856C39.8382 126.771 41.5783 128.685 43.2763 130.647C43.7445 131.188 44.1456 131.268 44.7714 131.038C50.1962 129.049 55.6287 127.086 61.0691 125.152C61.7058 124.926 61.8291 124.635 61.723 123.922C61.3484 121.377 61.016 118.824 60.7413 116.264C60.6664 115.557 60.412 115.359 59.8424 115.274C56.7274 114.802 53.6202 114.28 50.5052 113.806C48.9601 113.572 48.1736 112.787 47.9442 111.058C47.3589 106.645 46.7877 102.231 46.2165 97.8157C46.0823 96.7766 46.3367 95.8856 47.0203 95.1285C52.495 89.051 57.9634 82.9683 63.4272 76.8786C76.3586 62.4629 89.2853 48.0419 102.228 33.6383C102.635 33.1858 103.164 32.7664 103.704 32.5889C104.784 32.2338 105.837 32.7925 106.387 33.8176C106.95 34.8688 106.828 36.155 106.064 37.1209C105.84 37.4028 105.592 37.6604 105.352 37.9267C87.567 57.7603 69.7852 77.5939 51.9878 97.4136C51.479 97.981 51.298 98.477 51.4228 99.302C51.8489 102.13 52.1891 104.974 52.5215 107.818C52.587 108.371 52.7369 108.603 53.2519 108.679C55.9798 109.09 58.7 109.558 61.4296 109.962C61.7074 110.004 62.0288 109.76 62.316 109.617C62.4268 109.563 62.5033 109.421 62.5954 109.318C82.8617 86.7154 103.128 64.1128 123.39 41.505C123.959 40.8697 124.554 40.365 125.411 40.3667C126.419 40.3702 127.165 40.8558 127.632 41.8339C128.103 42.8207 128.017 43.8005 127.447 44.7056C127.226 45.0571 126.932 45.3565 126.658 45.6645C106.448 68.2079 86.2389 90.7496 66.0163 113.279C65.5824 113.763 65.4263 114.217 65.5215 114.882C65.8025 116.823 66.0412 118.772 66.2816 120.608C89.485 94.7682 112.699 68.9145 135.954 43.0174C135.875 42.9147 135.755 42.7372 135.616 42.5805C127.176 33.165 118.73 23.7563 110.305 14.3234C109.756 13.709 109.255 12.9676 108.946 12.1809C108.598 11.2968 108.912 10.3883 109.514 9.7113C110.998 8.04573 112.45 6.33143 114.037 4.79292C120.941 -1.89893 131.154 -1.5404 137.691 5.60743C140.421 8.59222 143.21 11.5265 145.74 14.7149C151.604 22.1047 151.373 33.4817 145.246 40.6261C141.382 45.132 137.365 49.4725 133.411 53.881C111.332 78.5059 89.2478 103.124 67.1867 127.766C66.2925 128.765 65.3311 129.411 64.1263 129.841C50.8032 134.609 37.4957 139.432 24.1804 144.23C23.692 144.406 23.1707 144.585 22.6682 144.575C20.9655 144.537 19.9433 142.716 20.5067 140.757C22.008 135.548 23.5312 130.346 25.0388 125.138C27.9899 114.945 30.9317 104.749 33.9 94.5629C34.0467 94.0616 34.3292 93.5569 34.6648 93.1827C57.1519 68.0931 79.6515 43.0191 102.143 17.9347C102.839 17.1585 103.579 16.5754 104.611 16.7547C105.524 16.9131 106.201 17.4717 106.544 18.4394C106.897 19.4314 106.775 20.38 106.173 21.2188C105.929 21.5565 105.638 21.8506 105.361 22.1586C83.3096 46.7488 61.2548 71.3372 39.2187 95.9447C38.7645 96.4512 38.3915 97.1404 38.1933 97.8226C34.4182 110.731 30.6742 123.65 26.9256 136.567C26.8476 136.835 26.782 137.107 26.6634 137.553L26.6696 137.551ZM139.748 39.1467C140.259 38.5393 140.814 37.8501 141.395 37.187C146.153 31.75 146.281 23.2917 141.602 17.785C139.135 14.882 136.594 12.0504 133.986 9.30404C131.118 6.2827 127.649 5.1236 123.725 5.67704C120.013 6.19916 117.274 8.51912 114.972 11.5109C123.199 20.688 131.43 29.8669 139.75 39.1467H139.748Z" fill="white"/>
<path id="Vector_2" d="M4.96905 27.5104C5.43724 27.5104 5.82115 27.5104 6.20507 27.5104C30.4448 27.5104 54.6845 27.5104 78.9226 27.5104C79.1567 27.5104 79.3908 27.5104 79.6249 27.5104C81.2277 27.5244 82.3623 28.6626 82.3685 30.262C82.3748 31.8615 81.2371 33.0345 79.6468 33.0362C75.4331 33.0432 71.2209 33.038 67.0072 33.038C46.6426 33.038 26.2795 33.038 5.91479 33.038C5.63232 33.038 5.3514 33.038 4.96437 33.038C4.96437 33.4104 4.96437 33.7167 4.96437 34.0248C4.96437 69.7865 4.96437 105.548 4.96437 141.308C4.96437 143.36 5.96161 144.462 7.81408 144.464C9.29668 144.465 10.7793 144.457 12.2619 144.467C13.81 144.478 14.929 145.621 14.9493 147.193C14.9696 148.789 13.8256 149.983 12.2494 149.991C10.6888 150 9.12813 150.007 7.5675 149.989C3.28045 149.939 0.029652 146.317 0.012485 141.526C-0.00936378 135.29 0.00624252 129.054 0.00624252 122.818C0.00780315 86.5919 0.00936378 50.3671 0 14.1407C0 11.8799 0.49472 9.84015 1.84935 8.12063C3.42246 6.12439 5.42787 5.22634 7.79379 5.22808C20.4084 5.23331 33.0214 5.22982 45.636 5.22982C62.6718 5.22982 79.7061 5.22982 96.7419 5.22982C97.0025 5.22982 97.2632 5.2159 97.5222 5.23853C98.8066 5.35339 99.8148 6.52294 99.8476 7.92397C99.8803 9.35806 98.8831 10.6042 97.5659 10.7399C97.1524 10.7817 96.7341 10.7573 96.319 10.7573C66.8527 10.7573 37.3849 10.7573 7.91864 10.7643C7.48322 10.7643 7.02128 10.7869 6.61863 10.947C5.62451 11.3421 4.99558 12.181 4.98621 13.3592C4.94876 18.027 4.97061 22.6948 4.97061 27.507L4.96905 27.5104Z" fill="white"/>
<path id="Vector_3" d="M90.1153 149.993C72.7673 149.993 55.4178 149.993 38.0698 149.993C37.8357 149.993 37.6016 150.003 37.3675 149.988C36.0051 149.895 34.9564 148.675 34.9689 147.205C34.9813 145.718 36.0238 144.509 37.4066 144.478C39.1748 144.438 40.9445 144.465 42.7127 144.465C75.6935 144.465 108.674 144.465 141.655 144.465C142.044 144.465 142.443 144.49 142.821 144.408C144.054 144.147 144.831 142.981 144.833 141.416C144.837 135.238 144.836 129.059 144.836 122.881C144.836 99.7057 144.836 76.5288 144.836 53.3536C144.836 53.0926 144.829 52.8315 144.837 52.5704C144.89 50.9832 145.956 49.7893 147.316 49.791C148.667 49.7928 149.764 50.9989 149.784 52.5809C149.811 54.6694 149.792 56.7578 149.792 58.8463C149.792 86.3151 149.792 113.784 149.791 141.253C149.791 145.47 147.584 148.769 144.09 149.721C143.367 149.918 142.598 149.982 141.852 149.982C124.607 149.996 107.362 149.993 90.1184 149.993H90.1153Z" fill="white"/>
<path id="Vector_4" d="M14.946 19.2592C14.8773 20.7681 13.6803 21.9794 12.3413 21.8924C10.9913 21.8054 9.91137 20.4548 10.0019 18.965C10.0908 17.4857 11.2504 16.3144 12.5644 16.3753C13.9159 16.438 15.0146 17.7659 14.946 19.2592Z" fill="white"/>
<path id="Vector_5" d="M113.784 27.3625C113.776 28.9097 112.688 30.1053 111.303 30.0914C109.932 30.0775 108.86 28.8366 108.885 27.2894C108.909 25.7978 109.999 24.59 111.328 24.583C112.678 24.5761 113.792 25.8361 113.784 27.3625Z" fill="white"/>
<path id="Vector_6" d="M22.4325 21.8962C21.0872 21.877 19.9557 20.5752 19.987 19.0802C20.0182 17.5661 21.1777 16.3321 22.5292 16.3756C23.8464 16.4174 24.942 17.6792 24.9373 19.1463C24.9326 20.6501 23.7793 21.9171 22.434 21.8979L22.4325 21.8962Z" fill="white"/>
<path id="Vector_7" d="M32.4238 21.896C31.077 21.8786 29.9456 20.5802 29.9737 19.0835C30.0017 17.5728 31.166 16.3302 32.5128 16.3737C33.8315 16.4154 34.9271 17.6737 34.924 19.1426C34.9209 20.6498 33.7722 21.9134 32.4238 21.896Z" fill="white"/>
</g>
<defs>
<clipPath id="clip0_36_3360">
<rect width="150" height="150" fill="white"/>
</clipPath>
</defs>
</svg>
