<svg width="150" height="150" viewBox="0 0 150 150" fill="none" xmlns="http://www.w3.org/2000/svg">
<g id="290125_camera_image_photo_photography_video_icon 1">
<path id="Vector" fill-rule="evenodd" clip-rule="evenodd" d="M134.375 128.125H15.625C8.72187 128.125 3.125 122.528 3.125 115.625V46.875C3.125 39.9719 8.72187 34.375 15.625 34.375H18.75C18.75 30.925 21.55 28.125 25 28.125H31.25C34.7 28.125 37.5 30.925 37.5 34.375H43.75C43.75 34.375 47.2656 33.9844 50 31.25L56.25 25C56.25 25 58.6906 21.875 62.5 21.875H87.5C91.6 21.875 93.75 25 93.75 25L100 31.25C102.734 33.9844 106.25 34.375 106.25 34.375H134.375C141.278 34.375 146.875 39.9719 146.875 46.875V115.625C146.875 122.528 141.278 128.125 134.375 128.125ZM140.625 46.875C140.625 43.425 137.825 40.625 134.375 40.625L105.559 40.5844C104.606 40.4813 99.6562 39.7437 95.5813 35.6687L88.925 29.0125L88.6 28.5406C88.6 28.5406 88.1125 28.125 87.5 28.125H62.5C62.0219 28.125 61.3281 28.6812 61.175 28.8469L60.9406 29.1469L54.4187 35.6656C50.3406 39.7437 45.3906 40.4781 44.4406 40.5812L31.4688 40.6C31.3937 40.6062 31.3219 40.625 31.25 40.625H25C24.9562 40.625 24.9188 40.6125 24.875 40.6125L15.625 40.625C12.175 40.625 9.375 43.425 9.375 46.875V115.625C9.375 119.075 12.175 121.875 15.625 121.875H134.375C137.825 121.875 140.625 119.075 140.625 115.625V46.875ZM75 115.625C56.0156 115.625 40.625 100.234 40.625 81.25C40.625 62.2656 56.0156 46.875 75 46.875C93.9844 46.875 109.375 62.2656 109.375 81.25C109.375 100.234 93.9844 115.625 75 115.625ZM75 53.125C59.4656 53.125 46.875 65.7156 46.875 81.25C46.875 96.7844 59.4656 109.375 75 109.375C90.5344 109.375 103.125 96.7844 103.125 81.25C103.125 65.7156 90.5344 53.125 75 53.125ZM75 96.875C66.3688 96.875 59.375 89.8812 59.375 81.25C59.375 72.6188 66.3688 65.625 75 65.625C83.6312 65.625 90.625 72.6188 90.625 81.25C90.625 89.8812 83.6312 96.875 75 96.875ZM75 71.875C69.825 71.875 65.625 76.075 65.625 81.25C65.625 86.4281 69.825 90.625 75 90.625C80.1781 90.625 84.375 86.4281 84.375 81.25C84.375 76.075 80.1781 71.875 75 71.875ZM31.25 59.375H18.75C17.0219 59.375 15.625 57.9781 15.625 56.25V50C15.625 48.275 17.0219 46.875 18.75 46.875H31.25C32.9781 46.875 34.375 48.275 34.375 50V56.25C34.375 57.9781 32.9781 59.375 31.25 59.375Z" fill="white"/>
</g>
</svg>
