<svg width="150" height="137" viewBox="0 0 150 137" fill="none" xmlns="http://www.w3.org/2000/svg">
<g id="Layer_1" clip-path="url(#clip0_36_3378)">
<path id="Vector" d="M105.191 100.319C104.523 97.7238 103.897 95.3238 103.288 92.9202C102.761 90.8367 104.013 89.1119 105.994 89.1681C107.195 89.2033 108.245 89.9752 108.565 91.2024C110.175 97.3704 111.77 103.542 113.337 109.722C113.706 111.176 113.059 112.461 111.818 113.019C110.566 113.581 109.235 113.221 108.336 111.983C101.247 102.235 91.4325 96.8939 79.8685 94.4306C71.8157 92.7145 63.6697 92.5158 55.4798 93.1224C46.5496 93.7853 37.8128 95.5207 29.1271 97.6306C23.3372 99.0372 17.5613 99.0108 12.007 96.5176C7.00651 94.2741 3.69748 90.5413 2.39989 85.147C1.64736 82.0191 0.755925 78.914 0.224933 75.7474C-0.611995 70.7751 0.935267 66.3636 4.05616 62.4972C7.643 58.0541 12.3832 55.3429 17.8022 53.8378C26.4651 51.4308 35.0014 48.6826 43.1597 44.8637C51.8068 40.8162 59.8807 35.9036 66.6869 29.1098C72.6262 23.1809 76.9638 16.2956 79.0192 8.09161C79.4518 6.36501 79.7313 4.59621 79.9986 2.83444C80.2447 1.20102 81.1379 0.132004 82.5217 0.0142014C84.0795 -0.119426 85.1362 0.691128 85.5969 2.39663C87.4307 9.17118 89.2646 15.944 91.0879 22.722C91.5275 24.359 90.731 25.7849 89.1749 26.2297C87.6892 26.6552 86.2668 25.8271 85.7797 24.2517C85.7199 24.0565 85.669 23.8579 85.6144 23.6609C84.8514 20.8389 84.0883 18.0152 83.3234 15.1932C83.2496 14.9242 83.1529 14.6604 83.021 14.2525C82.8663 14.5479 82.7608 14.7079 82.6922 14.8837C79.0298 24.2464 72.8829 31.719 65.1185 37.9538C56.6771 44.7318 47.2019 49.6901 37.0937 53.3983C30.9803 55.6418 24.691 57.4 18.4932 59.4167C14.3753 60.7565 10.7322 62.8576 8.06674 66.3742C5.81617 69.3421 5.01793 72.6388 5.95156 76.3083C6.57926 78.7733 7.14893 81.2542 7.74498 83.7263C8.89487 88.493 12.1652 91.0829 16.6822 92.3189C20.902 93.4741 25.0919 92.9958 29.2589 91.9233C36.3236 90.107 43.4797 88.7637 50.7325 87.9778C58.2051 87.169 65.6899 86.9562 73.1818 87.7686C83.1529 88.8481 92.5754 91.5488 100.975 97.235C102.351 98.1669 103.663 99.1972 105.191 100.319Z" fill="white"/>
<path id="Vector_2" d="M65.9749 57.604C65.9855 41.4879 79.16 28.3274 95.234 28.3766C111.38 28.4258 124.486 41.5688 124.432 57.6568C124.377 73.7993 111.234 86.8877 95.1338 86.835C79.044 86.7822 65.9626 73.6692 65.9732 57.604H65.9749ZM118.865 57.6656C118.889 44.6053 108.344 33.9784 95.3078 33.9292C82.237 33.8799 71.5714 44.4716 71.5275 57.5478C71.4835 70.5711 82.0787 81.2314 95.1021 81.2683C108.22 81.3053 118.84 70.7575 118.865 57.6673V57.6656Z" fill="white"/>
<path id="Vector_3" d="M59.6944 128.759C59.2865 128.412 58.9858 128.154 58.6799 127.901C50.2315 120.906 44.5242 112.08 41.1501 101.694C40.6262 100.08 41.3382 98.5413 42.8064 98.0367C44.3413 97.5092 45.8552 98.2811 46.3985 99.9479C48.6157 106.738 51.9475 112.901 56.686 118.271C59.8667 121.875 63.4447 125.007 67.6575 127.371C68.8865 128.061 69.4263 129.043 69.2276 130.336C69.0378 131.565 68.2799 132.312 67.0843 132.613C62.3212 133.814 57.5634 135.037 52.7862 136.178C52.1603 136.328 51.362 136.203 50.7625 135.938C44.7158 133.254 39.9721 128.978 36.0899 123.702C31.7575 117.814 28.7597 111.273 26.7799 104.25C26.4318 103.016 26.5953 101.912 27.6098 101.061C28.4678 100.34 29.4648 100.213 30.4933 100.655C31.4252 101.056 31.8806 101.833 32.1461 102.791C33.8674 108.992 36.5048 114.77 40.2622 120.01C43.3075 124.254 46.9981 127.793 51.6539 130.262C52.2324 130.568 52.7423 130.652 53.3911 130.462C55.2706 129.916 57.1766 129.451 59.0702 128.954C59.2267 128.913 59.3814 128.857 59.6909 128.76L59.6944 128.759Z" fill="white"/>
<path id="Vector_4" d="M147.185 87.6856C147.204 89.8993 144.906 91.1863 142.932 90.0294C140.308 88.4926 137.711 86.9085 135.104 85.3436C132.145 83.5678 129.182 81.8007 126.232 80.0126C125.068 79.3075 124.59 78.1875 124.857 76.9515C125.091 75.8737 126 74.9893 127.183 74.8662C127.705 74.8117 128.343 74.875 128.781 75.1335C134.543 78.5445 140.282 81.9924 146.012 85.4526C146.817 85.9397 147.176 86.7397 147.181 87.6856H147.185Z" fill="white"/>
<path id="Vector_5" d="M114.59 30.256C112.454 30.2384 111.172 28.0265 112.238 26.103C113.33 24.132 114.501 22.205 115.637 20.2568C117.731 16.6647 119.828 13.0761 121.914 9.4805C122.466 8.52753 123.223 7.91038 124.361 7.87698C125.409 7.84709 126.251 8.26731 126.805 9.1605C127.419 10.1486 127.368 11.1544 126.786 12.153C124.866 15.4392 122.953 18.7289 121.036 22.0151C119.723 24.2656 118.404 26.5127 117.094 28.7633C116.533 29.7268 115.726 30.263 114.592 30.256H114.59Z" fill="white"/>
<path id="Vector_6" d="M150 45.8269C149.982 47.1579 149.198 48.1337 147.785 48.5135C142.958 49.8076 138.128 51.0876 133.3 52.3711C132.284 52.6419 131.269 52.9179 130.25 53.1799C128.472 53.6353 126.99 52.8634 126.577 51.2757C126.16 49.6722 127.041 48.3078 128.838 47.826C134.652 46.2682 140.467 44.7139 146.285 43.179C148.324 42.6409 150.026 43.8788 150 45.8269Z" fill="white"/>
<path id="Vector_7" d="M92.1045 67.3426V60.5188C91.0249 60.2024 89.9348 59.9703 88.9097 59.5659C85.9137 58.3791 83.4275 56.5909 82.9862 53.1307C82.5132 49.4208 84.1449 46.5407 87.22 44.5891C88.6706 43.6678 90.3884 43.1702 92.0869 42.4352C92.435 40.0721 93.337 38.9926 95.0355 39.0752C96.6759 39.1543 97.606 40.3113 97.7467 42.5038C98.7489 42.7095 99.781 42.8713 100.787 43.1368C102.803 43.6678 104.667 44.5416 106 46.1961C106.608 46.9522 107.087 47.8647 107.414 48.7808C107.862 50.0379 107.129 51.4234 105.912 51.9737C104.66 52.5381 103.023 52.1654 102.473 50.9223C101.541 48.8177 99.6931 48.5592 97.7608 48.1566V55.1052C99.0513 55.3812 100.321 55.5799 101.548 55.928C108.687 57.9588 109.014 65.7074 104.875 69.7145C103.094 71.4376 100.954 72.4521 98.5555 72.9462C97.9858 73.064 97.6588 73.2539 97.4566 73.8569C97.0961 74.9348 95.9498 75.6187 94.8421 75.58C93.7097 75.5396 92.6741 74.8222 92.333 73.7057C92.1695 73.1712 91.8952 72.9813 91.3889 72.86C88.697 72.2183 86.2319 71.1053 84.2662 69.1009C83.373 68.1883 82.6275 67.1562 82.951 65.7444C83.22 64.5681 83.962 63.856 85.1418 63.6204C86.26 63.3971 87.213 63.7681 87.8407 64.6754C88.864 66.1558 90.3955 66.7237 92.1045 67.3409V67.3426ZM97.7608 60.6999V67.325C99.4223 67.2336 101.348 65.8516 101.836 64.4186C102.309 63.0296 101.875 61.9518 100.521 61.4419C99.6614 61.1184 98.7436 60.9566 97.7625 60.6999H97.7608ZM92.0904 48.4027C90.6187 48.8106 89.4284 49.4647 88.755 50.8168C88.1027 52.1285 88.3031 52.9443 89.5603 53.7039C90.3128 54.1592 91.1656 54.4546 92.0904 54.8749V48.401V48.4027Z" fill="white"/>
</g>
<defs>
<clipPath id="clip0_36_3378">
<rect width="150" height="136.243" fill="white"/>
</clipPath>
</defs>
</svg>
